<svg id="visual" viewBox="0 0 900 600" width="900" height="600" xmlns="http://www.w3.org/2000/svg" xmlns:xlink="http://www.w3.org/1999/xlink" version="1.1"><path d="M0 115L25 120C50 125 100 135 150 132C200 129 250 113 300 113C350 113 400 129 450 147C500 165 550 185 600 188C650 191 700 177 750 160C800 143 850 123 875 113L900 103L900 0L875 0C850 0 800 0 750 0C700 0 650 0 600 0C550 0 500 0 450 0C400 0 350 0 300 0C250 0 200 0 150 0C100 0 50 0 25 0L0 0Z" fill="#cee3f8"></path><path d="M0 193L25 199C50 205 100 217 150 206C200 195 250 161 300 154C350 147 400 167 450 190C500 213 550 239 600 245C650 251 700 237 750 224C800 211 850 199 875 193L900 187L900 101L875 111C850 121 800 141 750 158C700 175 650 189 600 186C550 183 500 163 450 145C400 127 350 111 300 111C250 111 200 127 150 130C100 133 50 123 25 118L0 113Z" fill="#eaf3fc"></path><path d="M0 229L25 241C50 253 100 277 150 269C200 261 250 221 300 211C350 201 400 221 450 246C500 271 550 301 600 315C650 329 700 327 750 322C800 317 850 309 875 305L900 301L900 185L875 191C850 197 800 209 750 222C700 235 650 249 600 243C550 237 500 211 450 188C400 165 350 145 300 152C250 159 200 193 150 204C100 215 50 203 25 197L0 191Z" fill="#f1f7fd"></path><path d="M0 427L25 428C50 429 100 431 150 435C200 439 250 445 300 452C350 459 400 467 450 461C500 455 550 435 600 435C650 435 700 455 750 471C800 487 850 499 875 505L900 511L900 299L875 303C850 307 800 315 750 320C700 325 650 327 600 313C550 299 500 269 450 244C400 219 350 199 300 209C250 219 200 259 150 267C100 275 50 251 25 239L0 227Z" fill="#f1f7fd"></path><path d="M0 529L25 531C50 533 100 537 150 544C200 551 250 561 300 565C350 569 400 567 450 558C500 549 550 533 600 529C650 525 700 533 750 541C800 549 850 557 875 561L900 565L900 509L875 503C850 497 800 485 750 469C700 453 650 433 600 433C550 433 500 453 450 459C400 465 350 457 300 450C250 443 200 437 150 433C100 429 50 427 25 426L0 425Z" fill="#eaf3fc"></path><path d="M0 601L25 601C50 601 100 601 150 601C200 601 250 601 300 601C350 601 400 601 450 601C500 601 550 601 600 601C650 601 700 601 750 601C800 601 850 601 875 601L900 601L900 563L875 559C850 555 800 547 750 539C700 531 650 523 600 527C550 531 500 547 450 556C400 565 350 567 300 563C250 559 200 549 150 542C100 535 50 531 25 529L0 527Z" fill="#cee3f8"></path></svg>