<svg width="1920" height="1080" viewBox="0 0 1920 1080" xmlns="http://www.w3.org/2000/svg"><path d="M 0,1080 C 0,1080 0,180 0,180 C 115.30000000000001,151.67948717948718 230.60000000000002,123.35897435897436 333,116 C 435.4,108.64102564102564 524.8999999999999,122.24358974358972 640,132 C 755.1000000000001,141.75641025641028 895.8000000000002,147.66666666666669 988,142 C 1080.1999999999998,136.33333333333331 1123.8999999999999,119.08974358974356 1237,117 C 1350.1000000000001,114.91025641025644 1532.6000000000001,127.97435897435898 1658,141 C 1783.3999999999999,154.02564102564102 1851.6999999999998,167.0128205128205 1920,180 C 1920,180 1920,1080 1920,1080 Z" fill="#b5d3f3" opacity="0.09999999999999999"/><path d="M 0,1080 C 0,1080 0,360 0,360 C 75.54358974358976,392.4717948717949 151.08717948717953,424.94358974358977 278,418 C 404.9128205128205,411.05641025641023 583.1948717948718,364.69743589743587 694,335 C 804.8051282051282,305.30256410256413 848.1333333333332,292.26666666666665 950,293 C 1051.8666666666668,293.73333333333335 1212.2717948717952,308.23589743589747 1335,319 C 1457.7282051282048,329.76410256410253 1542.7794871794872,336.7897435897436 1634,343 C 1725.2205128205128,349.2102564102564 1822.6102564102564,354.6051282051282 1920,360 C 1920,360 1920,1080 1920,1080 Z" fill="#b5d3f3" opacity="0.19999999999999998"/><path d="M 0,1080 C 0,1080 0,540 0,540 C 122.41025641025641,520.7102564102564 244.82051282051282,501.42051282051284 339,511 C 433.1794871794872,520.5794871794872 499.1282051282051,559.0282051282051 603,570 C 706.8717948717949,580.9717948717949 848.6666666666665,564.4666666666666 957,556 C 1065.3333333333335,547.5333333333334 1140.2051282051284,547.1051282051283 1244,535 C 1347.7948717948716,522.8948717948717 1480.5128205128206,499.1128205128205 1598,498 C 1715.4871794871794,496.8871794871795 1817.7435897435898,518.4435897435898 1920,540 C 1920,540 1920,1080 1920,1080 Z" fill="#b5d3f3" opacity="0.3"/><path d="M 0,1080 C 0,1080 0,720 0,720 C 76.5128205128205,700.9410256410256 153.025641025641,681.8820512820513 268,681 C 382.974358974359,680.1179487179487 536.4102564102566,697.4128205128205 654,696 C 771.5897435897434,694.5871794871795 853.3333333333333,674.4666666666667 957,690 C 1060.6666666666667,705.5333333333333 1186.2564102564104,756.7205128205129 1306,773 C 1425.7435897435896,789.2794871794871 1539.6410256410256,770.651282051282 1641,756 C 1742.3589743589744,741.348717948718 1831.1794871794873,730.6743589743589 1920,720 C 1920,720 1920,1080 1920,1080 Z" fill="#b5d3f3" opacity="0.39999999999999997"/><path d="M 0,1080 C 0,1080 0,900 0,900 C 87.23076923076923,900.1615384615384 174.46153846153845,900.3230769230769 293,897 C 411.53846153846155,893.6769230769231 561.3846153846155,886.8692307692306 689,873 C 816.6153846153845,859.1307692307694 922,838.2000000000002 1003,839 C 1084,839.7999999999998 1140.6153846153845,862.3307692307692 1246,868 C 1351.3846153846155,873.6692307692308 1505.5384615384617,862.4769230769231 1626,865 C 1746.4615384615383,867.5230769230769 1833.230769230769,883.7615384615385 1920,900 C 1920,900 1920,1080 1920,1080 Z" fill="#b5d3f3" opacity="0.49999999999999994"/></svg>